<?xml version="1.0" standalone="no"?>
<!DOCTYPE svg PUBLIC "-//W3C//DTD SVG 20010904//EN"
 "http://www.w3.org/TR/2001/REC-SVG-20010904/DTD/svg10.dtd">
<svg version="1.0" xmlns="http://www.w3.org/2000/svg"
 width="260.000000pt" height="260.000000pt" viewBox="0 0 260.000000 260.000000"
 preserveAspectRatio="xMidYMid meet">
<metadata>
Created by potrace 1.14, written by Peter Selinger 2001-2017
</metadata>
<g transform="translate(0.000000,260.000000) scale(0.100000,-0.100000)"
fill="#000000" stroke="none">
<path d="M1153 2520 c-533 -67 -957 -467 -1059 -998 -23 -116 -23 -328 0 -445
73 -379 320 -704 665 -877 88 -44 249 -95 346 -110 111 -18 313 -15 418 4 442
83 810 408 945 836 42 134 56 225 56 375 -1 333 -122 623 -359 860 -179 180
-381 289 -627 339 -97 20 -290 28 -385 16z m462 -687 c76 -62 194 -183 251
-255 35 -46 36 -49 21 -72 -13 -20 -262 -224 -794 -653 -24 -19 -47 -32 -52
-29 -5 3 -16 -5 -25 -19 -47 -71 -134 -113 -253 -122 l-73 -6 0 54 c0 111 47
224 110 265 21 14 37 31 34 37 -4 12 78 116 471 601 165 204 210 252 236 255
3 1 36 -24 74 -56z m-915 -803 c0 -11 -6 -20 -14 -20 -18 0 -29 16 -21 30 11
18 35 11 35 -10z m-92 -113 c2 -10 -3 -17 -12 -17 -18 0 -29 16 -21 31 9 14
29 6 33 -14z m-43 -137 c0 -22 -29 -18 -33 3 -3 14 1 18 15 15 10 -2 18 -10
18 -18z m492 -96 c8 -21 -13 -42 -28 -27 -13 13 -5 43 11 43 6 0 13 -7 17 -16z
m-109 -101 c-2 -10 -10 -18 -18 -18 -8 0 -16 8 -18 18 -2 12 3 17 18 17 15 0
20 -5 18 -17z m-140 -46 c2 -10 -3 -17 -12 -17 -18 0 -29 16 -21 31 9 14 29 6
33 -14z"/>
<path d="M1425 1615 c-73 -38 -105 -150 -59 -211 52 -71 117 -89 189 -54 100
49 114 186 25 250 -41 29 -114 36 -155 15z m120 -22 c19 -9 35 -21 35 -26 0
-5 -35 -43 -77 -84 -43 -42 -77 -79 -76 -83 1 -4 -7 -6 -18 -3 -58 15 -55 140
5 183 47 34 79 38 131 13z"/>
<path d="M1012 1069 c-98 -65 -192 -182 -192 -239 0 -78 220 84 285 210 41 79
0 92 -93 29z"/>
</g>
</svg>
